# xmcd
#
# Track frame offsets:
# 150
# 26183
# 44377
# 56422
# 73082
# 89989
# 97562
# 113845
# 135770
# 149505
# 169324
# 184112
# 199108
#
# Disc length: 2859 seconds
#
# Revision: 0
# Processed by: cddbd v1.5PL3 Copyright (c) Steve Scherf et al.
# Submitted via: Audion 3.0.2 (http://www.panic.com/audion/)
#
DISCID=b90b290d
DTITLE=RMCP GRC - Royal Canadian Mounted Police Band
DYEAR=1900
DGENRE=
TTITLE0=Fred Astaire Medley
TTITLE1=Somewhere Out There
TTITLE2=Alexander's Ragtime Band
TTITLE3=When You Wish Upon A Star
TTITLE4=Chante
TTITLE5=Song Without Words
TTITLE6=Tumbleweed Medley
TTITLE7=I'm Getting Sentimental Over You
TTITLE8=To All The Girls
TTITLE9=Shuffle Funk Boogie
TTITLE10=Always On My Mind
TTITLE11=Imperial March
TTITLE12=Last Farewell
EXTD=
EXTT0=
EXTT1=
EXTT2=
EXTT3=
EXTT4=
EXTT5=
EXTT6=
EXTT7=
EXTT8=
EXTT9=
EXTT10=
EXTT11=
EXTT12=
PLAYORDER=
